# Blender3D v249 OBJ File: Box.blend
# www.blender3d.org
v 6.000000 6.000000 -6.000000
v 6.000000 -6.000000 -6.000000
v -6.000001 -5.999999 -6.000000
v -5.999998 6.000002 -6.000000
v 6.000003 5.999997 6.000000
v 5.999996 -6.000004 6.000000
v -6.000002 -5.999998 6.000000
v -6.000000 6.000000 6.000000
vt 0.000000 0.000000
vt 1.000000 0.000000
vt 1.000000 1.000000
vt 0.000000 1.000000
vn 0.000000 1.000000 0.000000
vn -1.000000 0.000000 -0.000000
vn -0.000000 -1.000000 -0.000000
vn 1.000000 0.000000 -0.000000
vn 1.000000 -0.000001 0.000000
vn 0.000000 0.000000 1.000000
vn 0.000000 0.000000 -1.000000
usemtl Material
s off
f 5/1/1 1/2/1 4/3/1
f 5/1/1 4/3/1 8/4/1
f 3/1/2 7/2/2 8/3/2
f 3/1/2 8/3/2 4/4/2
f 2/1/3 6/2/3 3/4/3
f 6/2/3 7/3/3 3/4/3
f 1/1/4 5/2/4 2/4/4
f 5/2/5 6/3/5 2/4/5
f 5/1/6 8/2/6 6/4/6
f 8/2/6 7/3/6 6/4/6
f 1/1/7 2/2/7 3/3/7
f 1/1/7 3/3/7 4/4/7
